<svg xmlns="http://www.w3.org/2000/svg" width="50.91" height="32.71" viewBox="0 0 50.91 32.71">
  <path id="menu-ico" d="M1.818,10.227H49.092c1,0,1.818-.6,1.818-1.335V5.554c0-.737-.814-1.335-1.818-1.335H1.818c-1,0-1.818.6-1.818,1.335V8.892C0,9.629.814,10.227,1.818,10.227Zm0,13.351H49.092c1,0,1.818-.6,1.818-1.335V18.905c0-.737-.814-1.335-1.818-1.335H1.818c-1,0-1.818.6-1.818,1.335v3.338C0,22.98.814,23.578,1.818,23.578Zm0,13.351H49.092c1,0,1.818-.6,1.818-1.335V32.256c0-.737-.814-1.335-1.818-1.335H1.818c-1,0-1.818.6-1.818,1.335v3.338C0,36.331.814,36.929,1.818,36.929Z" transform="translate(0 -4.219)" fill="#dcdbdb"/>
</svg>
