<?xml version="1.0" encoding="UTF-8" standalone="no"?>
<svg
   xmlns:dc="http://purl.org/dc/elements/1.1/"
   xmlns:cc="http://creativecommons.org/ns#"
   xmlns:rdf="http://www.w3.org/1999/02/22-rdf-syntax-ns#"
   xmlns:svg="http://www.w3.org/2000/svg"
   xmlns="http://www.w3.org/2000/svg"
   xmlns:sodipodi="http://sodipodi.sourceforge.net/DTD/sodipodi-0.dtd"
   xmlns:inkscape="http://www.inkscape.org/namespaces/inkscape"
   width="50.91"
   height="32.71"
   viewBox="0 0 50.91 32.71"
   version="1.1"
   id="svg3"
   sodipodi:docname="menu-ico-black.svg"
   inkscape:version="0.92.4 (5da689c313, 2019-01-14)">
  <metadata
     id="metadata9">
    <rdf:RDF>
      <cc:Work
         rdf:about="">
        <dc:format>image/svg+xml</dc:format>
        <dc:type
           rdf:resource="http://purl.org/dc/dcmitype/StillImage" />
      </cc:Work>
    </rdf:RDF>
  </metadata>
  <defs
     id="defs7" />
  <sodipodi:namedview
     pagecolor="#ffffff"
     bordercolor="#666666"
     borderopacity="1"
     objecttolerance="10"
     gridtolerance="10"
     guidetolerance="10"
     inkscape:pageopacity="0"
     inkscape:pageshadow="2"
     inkscape:window-width="1920"
     inkscape:window-height="1017"
     id="namedview5"
     showgrid="false"
     inkscape:zoom="5.5784718"
     inkscape:cx="25.455"
     inkscape:cy="16.355"
     inkscape:window-x="1912"
     inkscape:window-y="-8"
     inkscape:window-maximized="1"
     inkscape:current-layer="svg3" />
  <path
     id="menu-ico"
     d="M1.818,10.227H49.092c1,0,1.818-.6,1.818-1.335V5.554c0-.737-.814-1.335-1.818-1.335H1.818c-1,0-1.818.6-1.818,1.335V8.892C0,9.629.814,10.227,1.818,10.227Zm0,13.351H49.092c1,0,1.818-.6,1.818-1.335V18.905c0-.737-.814-1.335-1.818-1.335H1.818c-1,0-1.818.6-1.818,1.335v3.338C0,22.98.814,23.578,1.818,23.578Zm0,13.351H49.092c1,0,1.818-.6,1.818-1.335V32.256c0-.737-.814-1.335-1.818-1.335H1.818c-1,0-1.818.6-1.818,1.335v3.338C0,36.331.814,36.929,1.818,36.929Z"
     transform="translate(0 -4.219)"
     fill="#dcdbdb"
     style="fill:#000000" />
</svg>
