<svg xmlns="http://www.w3.org/2000/svg" viewBox="0 0 132.197 150.089" height="149.668" width="131.399">
  <g stroke-width=".577">
    <path d="M4.773 17.89C15.634 2.288 46.593.188 67.222-.246c27.327.608 50.462 6.215 59.057 17.975 12.914 28.824 1.175 71.328-2.266 77.05-12.854 28.805-48.752 54.018-53.092 54.822-6.23 1.486-7.731.336-10.118-.227-17.74-7.33-38.739-29.579-51.025-49.873C3.626 87.018 1.479 73.84.204 60.51-.061 45.185-.908 29.497 4.773 17.89z" fill="#81c564"/>
    <path d="M13.86 23.074c4.03-5.458 25.089-13.153 53.478-12.628 29.45.016 50.521 8.924 49.913 12.004 10.645 23.962-.263 64.688-3.1 69.445-10.595 23.947-30.589 37.601-42.37 45.38-1.94 1.37-5.943 3.495-5.943 3.495s-4.05-2.57-5.945-3.833c-15.237-9.62-29.47-22.987-40.522-42.423-5.07-10.379-7.61-21.816-8.661-32.897-.218-12.74-1.531-28.894 3.15-38.544z" fill="#412f1f"/>
    <path d="M69.509 115.847c14.368-12.209 16.534-21.22 19.148-30.15.987-8.71 3.165-16.573-1.088-29.018-3.392-13.33-9.682-21.174-16.21-28.564-2.474-2.256-4.146-5.626-5.767-9.068-1.281 4.646-3.288 4.986-5.004 7.028C48.706 37.06 44.916 50.525 42.854 61.44c-1.984 13.514-.114 24.758 4.57 34.344 3.385 7.566 8.872 14.35 16.319 20.403 1.688.517 2.704 2.58 5.766-.34z" fill="#509747"/>
    <path d="M65.056 129.203s2.142.43 3.303.96l-.288-11.355 1.414-3.174c-1.334-1.125-2.692-3.776-3.192-7.84-.175-1.426-.217-1.85-.615-3.495-.583 5.957-1.151 10.751-1.935 11.888 1.457 2.836.84 6.107 1.39 8.401z" fill="#b2af90"/>
    <path d="M66.397 104.13l-.934-85.572c-1.268 4.668-2.925 5.35-4.622 7.4-11.747 11.037-15.82 24.225-17.86 35.188-1.961 13.576-.113 24.872 4.518 34.504 3.348 7.6 8.772 14.414 16.135 20.496 1.67.52 1.911-7.496 2.764-12.016z" fill="#7bb969"/>
  </g>
</svg>
