<svg xmlns="http://www.w3.org/2000/svg" viewBox="0 0 156.744 154.748" height="154.497" width="156.688">
  <path d="M127.506 50.474q-2.454-.922-4.907-1.74c.272-1.263.515-2.527.756-3.79 3.726-20.34 1.273-36.686-6.997-42.08-7.967-5.153-20.961.205-34.108 13.106a80.576 98.166 0 00-3.786 3.924 88.61 107.953 0 00-2.514-2.628C62.168 3.48 48.355-2.322 40.085 3.105c-7.936 5.187-10.3 20.58-6.967 39.828.337 1.912.697 3.788 1.122 5.699a92.251 112.39 0 00-5.631 2.014C12.425 56.958.828 66.922.828 77.23c0 10.648 12.359 21.329 29.17 27.813 1.363.512 2.726 1.024 4.118 1.467-.455 2.048-.848 4.06-1.212 6.143-3.18 18.942-.697 33.957 7.24 39.112 8.178 5.324 21.934-.136 35.32-13.344a99.032 99.032 0 003.18-3.31c1.333 1.467 2.726 2.867 4.118 4.23 12.965 12.56 25.778 17.646 33.684 12.493 8.179-5.325 10.84-21.467 7.392-41.124q-.41-2.253-.91-4.607a70.74 70.74 0 002.848-.99c17.48-6.518 30.14-17.064 30.14-27.882 0-10.342-11.933-20.375-28.413-26.756zM86.522 21.498C97.79 10.44 108.302 6.107 113.087 9.212c5.119 3.31 7.088 16.689 3.878 34.264-.212 1.16-.42 2.286-.697 3.412a166.78 203.188 0 00-20.386-3.617 144.118 175.58 0 00-12.904-18.123 125.527 125.527 0 013.544-3.652zM51.477 94.94c1.545 2.97 3.12 5.939 4.786 8.84a147.533 179.74 0 01-14.055-2.56 124.666 151.88 0 014.938-15.187c1.393 3.003 2.817 5.972 4.33 8.907zM42.3 53.883c4.362-1.092 8.997-1.98 13.813-2.662a208.946 208.946 0 00-4.665 8.668c-1.484 2.9-2.942 5.87-4.301 8.873a127.255 155.035 0 01-4.85-14.876zM50.596 77.4c2-4.71 4.18-9.317 6.482-13.856 2.302-4.538 4.786-8.94 7.392-13.275 4.544-.376 9.178-.58 13.903-.58 4.726 0 9.39.204 13.904.58q3.866 6.45 7.36 13.208a243.9 243.9 0 016.575 13.787q-3.044 7.065-6.543 13.925c-2.302 4.539-4.756 8.94-7.33 13.31-4.514.376-9.21.546-13.965.546-4.756 0-9.36-.171-13.813-.478q-3.95-6.502-7.452-13.31A172.361 209.988 0 0150.597 77.4zm54.71 17.474c1.545-3.003 3-6.041 4.423-9.113a124.164 151.27 0 015.119 15.119 142.982 174.196 0 01-14.238 2.73c1.633-2.866 3.178-5.8 4.692-8.736zm4.362-26.11c-1.423-3.002-2.877-6.005-4.392-8.94q-2.226-4.352-4.634-8.6c4.874.682 9.542 1.604 13.903 2.73a118.195 143.998 0 01-4.874 14.81zM78.438 30.37a125.685 153.122 0 018.966 12.218 176.374 176.374 0 00-18.023 0 144.365 175.88 0 019.053-12.215zM43.296 9.453c5.088-3.345 16.388 1.433 28.292 13.31.756.75 1.513 1.57 2.302 2.389a145.034 176.696 0 00-12.995 18.122 171.765 209.262 0 00-20.356 3.55c-.394-1.74-.727-3.515-1.06-5.29-2.85-16.52-.97-28.976 3.817-32.081zm-7.424 89.959a81.281 99.025 0 01-3.755-1.331c-6.452-2.287-13.783-5.904-19.084-10.65a12.5 15.229 0 01-5.695-10.203c0-6.245 9.572-14.231 23.385-19.658a110.28 134.354 0 015.24-1.877A142.308 173.374 0 0043.387 77.4a146.276 178.208 0 00-7.514 22.013zm35.323 33.445a56.291 68.58 0 01-17.086 12.047 14.407 17.552 0 01-10.692.443c-4.817-3.14-6.816-15.187-4.09-31.397.337-1.911.697-3.822 1.12-5.698a163.122 198.733 0 0020.57 3.345 150.673 183.565 0 0013.085 18.224 78.97 96.21 0 01-2.907 3.036zm7.42-8.293a135.523 165.108 0 01-9.177-12.39c2.908.137 5.907.206 8.936.206 3.12 0 6.18-.07 9.209-.24a123.203 150.099 0 01-8.967 12.424zm39.59 10.239a12.196 14.858 0 01-4.996 10.682c-4.816 3.14-15.085-.956-26.172-11.673-1.272-1.228-2.545-2.56-3.847-3.924a140.807 171.546 0 0012.783-18.292 160.637 195.705 0 0020.659-3.584c.302 1.4.576 2.798.818 4.163a47.306 57.633 0 01.756 22.628zm5.515-36.688a58.77 58.77 0 01-2.575.888 136.241 165.983 0 00-7.724-21.773 135.362 164.912 0 007.42-21.467 106.27 106.27 0 014.545 1.605c14.12 5.46 24.022 13.582 24.022 19.793 0 6.689-10.572 15.323-25.687 20.954zm-45.347-5.12c7.664 0 13.874-6.995 13.874-15.63 0-8.634-6.21-15.63-13.874-15.63-7.663 0-13.873 6.996-13.873 15.63 0 8.635 6.21 15.63 13.873 15.63z" fill="#80d8db" stroke="#fff" stroke-width="1.855"/>
</svg>
