<svg xmlns="http://www.w3.org/2000/svg" viewBox="0 0 155.065 145.125" height="144.255" width="154.14">
  <path d="M77.498 145.125a15.681 15.541 0 01-6.733-1.497l-21.414-10.51c-3.194-1.496-1.632-2.014-.59-2.302a46.545 46.13 0 009.684-3.657 1.826 1.81 0 011.596.115l16.45 8.092a2.353 2.332 0 001.98 0l64.102-30.697a1.682 1.667 0 00.972-1.44V41.835a1.697 1.682 0 00-1.007-1.47L78.47 9.692a2.353 2.332 0 00-1.979 0L12.458 40.39a1.665 1.65 0 00-1.006 1.468v61.369a1.586 1.572 0 001.006 1.41l17.562 8.41c9.544 3.945 15.374-.691 15.374-5.385V47.068a1.714 1.699 0 011.875-1.526h8.124a1.736 1.72 0 011.874 1.526v60.62c0 10.54-6.941 16.588-18.985 16.588-3.713 0-6.629 0-14.75-3.34l-16.8-8.035c-4.166-1.986-6.734-5.702-6.734-9.705v-61.37c0-3.97 2.568-7.717 6.733-9.703L70.765 1.426a16.478 16.332 0 0113.466 0l64.103 30.727c4.165 1.986 6.733 5.702 6.733 9.705v61.369c0 3.97-2.568 7.689-6.733 9.704l-64.103 30.697a15.568 15.429 0 01-6.733 1.497zm51.748-60.505c0-11.49-9.37-14.542-29.053-16.703-19.922-2.188-21.935-3.31-21.935-7.17 0-3.196 1.701-7.458 16.451-7.458 13.154 0 18.013 2.36 20.026 9.733a1.813 1.797 0 001.805 1.21h8.33a1.99 1.972 0 001.353-.49 1.463 1.45 0 00.486-1.18c-1.281-12.7-11.45-18.604-31.995-18.604-18.29 0-29.189 6.393-29.189 17.135 0 11.634 10.863 14.86 28.39 16.3 20.998 1.699 22.625 4.262 22.625 7.69 0 5.932-5.76 8.466-19.262 8.466-16.972 0-20.685-3.542-21.934-10.54a1.77 1.755 0 00-1.837-1.296h-8.295a1.699 1.684 0 00-1.837 1.527c0 8.955 5.866 19.64 33.943 19.64 20.269-.03 31.93-6.682 31.93-18.258z" fill="#9edf05" stroke-width="0"/>
</svg>
