<svg xmlns="http://www.w3.org/2000/svg" viewBox="0 0 139.427 132.456" height="131.914" width="139.334">
  <path d="M91.043 82.764c0 12.539-12.404 12.25-13.716 12.25H52.066V70.86h25.26c13.292 0 13.717 9.432 13.717 11.903zM75.38 61.143c.209 0 12.004.296 12.004-10.733 0-4.59-1.096-10.606-12.004-10.606H52.066v21.339zm64.285-39.063v88.299c-.038 12.178-10.456 22.041-23.32 22.077H23.08c-12.864-.036-23.283-9.899-23.32-22.077V22.077C-.203 9.897 10.216.037 23.079 0h93.266c12.865.036 23.284 9.898 23.32 22.077zM105.33 84.517c0-6.377-2.077-17.234-15.318-19.912v-.216c7.154-2.891 11.66-8.352 11.66-16.452 0-2.069.625-19.153-24.233-19.153h-39.66v77.266c40.045 0 43.68.497 51.09-1.688 4.44-1.307 16.462-5.316 16.462-19.845z" fill="#8a56da" stroke-width="0"/>
</svg>
