<svg xmlns="http://www.w3.org/2000/svg" viewBox="0 0 150.162 155.132" height="154.27" width="149.466">
  <path d="M132.401 127.793a75.047 77.566-.543 01-105.777 8.884A75.047 77.566-.543 0117.96 27.346a75.047 77.566-.543 01105.776-8.895 75.047 77.566-.543 018.675 109.33" fill="#5c2d91" stroke-width=".873"/>
  <path d="M23.322 21.33l106.15 109.79c-14.314 15.988-37.537 24.67-56.092 23.876-20.37.196-46.9-12.202-58.972-32.495C1.096 103.318-4.31 80.389 3.632 54.339c3.43-12.68 10.89-23.566 19.69-33.007z" opacity=".53" fill="#6d429c" stroke-width=".873"/>
  <path d="M102.897 42.2l29.492.125v4.48l-12.445-.068.078 40.02-5.144-.002.12-40.107-12.093-.09zm-4.95 44.513v-5.215H80.622V65.94l15.052.088.084-4.433-15.136-.087-.084-14.95h16.397l-.083-4.258-21.696-.175v44.589zm-68.15-.024l5.266.165-.479-38.12 23.47 38.12h6.386l-.319-44.72h-5.11l.32 37.294-23.15-37.13h-6.546zm-8.224-.801a3.387 3.443 0 01-4.779.332 3.387 3.443 0 01-.328-4.856 3.387 3.443 0 014.78-.333 3.387 3.443 0 01.328 4.856" fill="#fff" stroke-width=".873"/>
  <g word-spacing="0" letter-spacing="0" font-weight="400" font-family="sans-serif" fill="#f1f1f1">
    <text font-size="34.828" style="line-height:1.25" x="82.346" y="141.849" transform="matrix(.7097 0 0 .81076 -14.349 8.556)" stroke-width=".871">
      <tspan x="82.346" y="141.849">C</tspan>
    </text>
    <text font-size="35.759" style="line-height:1.25" x="99.286" y="151.996" transform="matrix(.76194 0 0 .75517 -14.349 8.556)" stroke-width=".894">
      <tspan x="99.286" y="151.996">o</tspan>
    </text>
    <text font-size="33.532" style="line-height:1.25" x="131.597" y="140.509" transform="matrix(.70246 0 0 .81912 -14.349 8.556)" stroke-width=".838">
      <tspan x="131.597" y="140.509">r</tspan>
    </text>
    <text font-size="34.005" style="line-height:1.25" x="144.344" y="141.846" transform="matrix(.70813 0 0 .81255 -14.349 8.556)" stroke-width=".85">
      <tspan x="144.344" y="141.846">e</tspan>
    </text>
  </g>
</svg>
