<svg xmlns="http://www.w3.org/2000/svg" width="140.643" height="130.891" viewBox="0 0 141.32 131.368"><path fill="#eee" d="M8.98 30.807C-3.536 48.183-1.985 70.782 7.583 89.232c.22.45.46.877.696 1.304a9.382 9.154 0 00.45.85 4.916 4.797 0 00.276.472c.154.296.32.58.478.865l.926 1.51c.17.28.336.552.53.831.325.536.708 1.066 1.044 1.601.154.222.295.445.465.667q.858 1.301 1.828 2.53c.46.61.92 1.2 1.415 1.794.16.216.336.433.5.65l1.303 1.531c.16.176.32.382.49.564.577.672 1.19 1.327 1.804 1.99 0 .01.018.021.03.04a18.356 17.91 0 002.5 2.505c.471.467.942.934 1.444 1.39l.595.553c.654.592 1.31 1.185 1.998 1.754.012 0 .018.011.03.017l.336.285a44.175 43.102 0 001.828 1.481l.737.598c.5.388 1.02.758 1.533 1.14l.801.594c.55.4 1.132.79 1.692 1.178.207.142.413.285.63.416l.17.13 1.657 1.053.708.456a125.09 125.09 0 002.582 1.544c.248.12.496.251.726.388.636.35 1.297.712 1.94 1.043.353.194.72.358 1.085.536.442.24.9.472 1.373.712a1.92 1.873 0 01.33.13c.194.088.378.176.567.268.707.342 1.444.667 2.21.991a4.826 4.71 0 01.45.194c.848.36 1.698.702 2.576 1.037.2.057.413.153.62.228.795.29 1.618.587 2.427.866l.294.102c.9.297 1.793.582 2.706.855.212.057.43.13.655.187a28.884 28.183 0 002.786.775c60.49 10.653 78.07-35.145 78.07-35.145-14.769 18.583-40.975 23.483-65.795 18.03-.92-.205-1.84-.49-2.765-.75q-1.683-.48-3.344-1.033l-.365-.137c-.802-.263-1.575-.552-2.358-.842q-.32-.129-.649-.234a77.722 77.722 0 01-2.546-1.043c-.18-.057-.337-.137-.519-.205q-1.068-.475-2.129-.965c-.218-.087-.412-.187-.629-.296-.554-.25-1.108-.536-1.65-.809q-.559-.263-1.103-.547c-.666-.342-1.332-.712-1.998-1.066-.2-.137-.43-.25-.66-.376q-1.304-.747-2.583-1.533-.36-.214-.696-.45-.939-.558-1.84-1.173c-.206-.13-.394-.274-.607-.416q-.878-.588-1.733-1.208c-.248-.193-.514-.376-.779-.569-.519-.393-1.044-.77-1.562-1.185l-.696-.536q-1-.78-1.969-1.6a1.52 1.482 0 00-.218-.172l-2.046-1.8-.59-.535c-.484-.473-.979-.93-1.474-1.396l-.572-.57q-.934-.898-1.822-1.842l-.09-.088a89.23 89.23 0 01-1.846-2.017c-.159-.175-.306-.365-.47-.553l-1.334-1.578q-1.02-1.263-2.004-2.553C12.67 64.487 7.69 39.42 18.708 18.86m29.106-2.692c-9.073 12.587-8.56 29.417-1.497 42.725a53.028 51.74 0 003.992 6.45 31.021 30.267 0 004.67 5.613 38.59 38.59 0 002.027 2.045l.53.514q1.008.94 2.068 1.851l.09.074q1.187 1.008 2.435 1.95c.2.131.371.286.566.416a74.971 74.971 0 002.518 1.795l.09.05c.365.257.754.491 1.168.741.166.103.353.24.53.342.63.388 1.238.752 1.87 1.123.1.04.188.087.283.13.53.314 1.108.614 1.662.895.194.114.383.2.583.308.395.188.784.388 1.162.582l.188.08c.796.376 1.61.728 2.406 1.082.2.073.371.137.54.216.654.274 1.32.536 1.977.781.295.096.572.21.85.296.6.217 1.231.416 1.826.614l.825.257a20.102 19.614 0 002.642.735c46.692 7.48 57.505-27.272 57.505-27.272-9.735 13.537-28.572 19.987-48.646 14.95q-1.332-.333-2.64-.74c-.284-.074-.53-.16-.803-.24-.613-.205-1.244-.404-1.84-.62l-.848-.309c-.66-.256-1.332-.495-1.978-.769-.2-.088-.383-.142-.54-.228-.824-.359-1.656-.712-2.458-1.094l-1.209-.61-.7-.343a36.254 36.254 0 01-1.563-.855 3.666 3.577 0 01-.366-.193c-.63-.377-1.274-.74-1.87-1.128-.2-.108-.382-.24-.57-.35l-1.23-.776c-.848-.57-1.68-1.185-2.517-1.777-.189-.165-.37-.3-.554-.45A55.523 54.174 0 0151.9 38.776c-3.478-10.788-2.712-22.892 3.296-32.716m25.274-.837c-5.354 7.588-5.866 17.011-2.182 25.38a36.924 36.027 0 0021.248 19.17c.382.142.754.263 1.15.4l.518.152c.54.165 1.09.36 1.65.48 25.8 4.808 32.78-12.802 34.66-15.388-6.143 8.523-16.442 10.568-29.076 7.6a28.767 28.068 0 01-3.042-.91 37.609 36.695 0 01-3.637-1.448 38.515 37.579 0 01-6.368-3.76C84.073 28.623 77.063 12.803 84.444-.077"/></svg>