<svg xmlns="http://www.w3.org/2000/svg" width="179.731" height="172.301" viewBox="0 0 180.365 172.392">
  <path d="M176.957 78.485L98.203 2.998a12.602 13.455 0 00-16.443 0l-16.316 15.67 20.742 19.885a14.958 15.97 0 0114.196 3.177 11.52 12.3 0 013.292 13.688l19.977 19.163a14.938 15.95 0 0114.272 3.135 11.527 12.307 0 010 18.76 14.936 15.948 0 01-19.54 0 11.543 12.324 0 01-3.036-14.38L96.65 64.256v47.01a13.92 14.862 0 013.667 2.507 11.582 12.366 0 010 18.732 14.996 16.012 0 01-19.608 0 11.504 12.283 0 010-18.717 14.358 15.33 0 014.546-2.926V63.393a13.93 14.874 0 01-4.509-2.886 11.463 12.24 0 01-2.976-14.486l-20.38-19.62L3.382 78.134a9.754 10.415 0 000 15.771l78.761 75.48a12.567 13.417 0 0016.43 0l78.384-75.146a9.69 10.347 0 000-15.756" fill="#f03c2e" stroke-width="1.821"/>
</svg>
