<svg xmlns="http://www.w3.org/2000/svg" viewBox="0 0 180.362 172.392" height="172.302" width="179.729">
  <path d="M80.2 4.494l86.13 82.133-76.84 73.628L3.36 78.123z" opacity=".995" fill="#fff" stroke-width=".147"/>
  <path d="M176.955 78.485L98.2 2.998a12.602 13.455 0 00-16.443 0l-16.316 15.67 20.742 19.884a14.958 15.97 0 0114.197 3.177 11.52 12.3 0 013.29 13.69L123.65 74.58a14.938 15.95 0 0114.272 3.134 11.527 12.307 0 010 18.76 14.936 15.948 0 01-19.54 0 11.543 12.324 0 01-3.037-14.38L96.648 64.257v47.008a13.92 14.862 0 013.667 2.508 11.582 12.366 0 010 18.732 14.996 16.012 0 01-19.608 0 11.504 12.283 0 010-18.717 14.358 15.33 0 014.546-2.925v-47.47a13.93 14.874 0 01-4.51-2.886 11.463 12.24 0 01-2.975-14.485L57.388 26.4 3.382 78.136a9.754 10.415 0 000 15.77l78.76 75.48a12.567 13.417 0 0016.43 0l78.383-75.145a9.69 10.347 0 000-15.756" fill="#f03c2e" stroke-width="1.821"/>
</svg>
