<svg xmlns="http://www.w3.org/2000/svg" width="156.6" height="154.6"><path d="M62.521 22.798c-9.436.373-19.013 1.825-28.111 1.323-7.53-1.266-18.345-1.064-22.216 6.984-3.525 9.273 1.786 19.26 5.855 27.51 2.328 5.428 9.041 7.713 13.803 5.425 3.412 3.105 10.42.153 12.203 2.116-.084 5.004 1.071 11.921 7.008 12.963 6.372 1.257 14.64-1.593 15.877-8.703 1.409-2.587-1.218-8.879 4.035-6.916 3.818-.637 10.619-1.214 11.726-5.92-.414-6.453-14.877 1.879-6.63-5.988 3.871-6.553 11.246-19.657 1.5-24.867-4.44-2.866-9.842-3.929-15.05-3.927zm-.145 1.51c6.523.106 15.74 1.701 17.826 8.819.536 8.792-6.159 17.266-9.72 23.433 3.157 1.444 7.393-1.634 10.023.61.064 2.993-4.924 3.517-6.932 4.291-3.999.774-8.977-1.657-7.957 4.366-.632 4.173-1.041 9.773-5.938 11.106-4.532 1.82-11.46 1.653-13.263-3.827-1.715-2.586.612-10.38-1.748-10.303-3.525 1.592-9.28 2.443-12.061-.777-.07-2.192 3.244-1.941 4.712-2.367 2.25-.09 5.802-3.083 1.26-2.506-4.673-1.249-6.774 6.954-11.961 6.164-9.648-3.35-11.201-16.476-13.596-24.91-.977-6.267 3.667-12.461 10.08-12.99 8.323-1.312 16.208 2.531 24.241-.511 5.163 1.088 9.879-.286 15.034-.598zm.47 1.58c-1.037.131-9.245-.031-3.48 1.313 4.425 2.421 10.836 6.465 10.816 12.21-1.604 4.55.992 9.372-.897 13.786-3.171 5.36 5.303-5.519 4.498-5.609 4.368-6.163 7.82-18.327-2.584-20.345-2.669-.961-5.536-1.345-8.353-1.355zm-14.762.604c-7.313-.625-13.942 5.4-14.136 12.728 3.64-1.604 10.352-2.973 12.069 1.958 3.067 5.05-2.131 12.094-1.884 15.03 2.664-.013 4.4 2.804 3.59 5.263.484 4.602-1.272 10.752 2.867 14.075 3.986 1.851 10.938.665 11.963-4.327 1.01-4.348 1.354-8.865 2.173-13.205 1.563-1.995 4.026-1.756.623-4.126-2.528-4.393-9.405-10.62-4.397-15.295 3.13-1.965 10.216.517 4.505-4.729-4.257-5.035-10.9-7.442-17.373-7.372zm-20.472.126c-6.415-.785-13.464 3.846-12.562 10.856 1.948 8.165 3.45 20.314 11.988 24.282 2.904-.848 8.017-4.953 7.184-6.783-5.01-5.42-1.995-14.21-1.18-20.739-.06-3.768 9.944-7.96-.122-7.197l-4.142-.397-1.17-.02zm38.21 12.459c-9.193.123-1.615 10.171 1.297 13.987 2.235-4.34-.828-9.313.983-13.872l-2.281-.113zm-25.377.271c-4.24-.161-8.33 1.55-6.476 6.405-3.045 4.912 4.611 13.325 7.97 8.407 2.89-3.928 3.948-9.434 1.465-13.814-.711-.858-1.93-.967-2.959-.998zm24.398.481c.785-.3 2.005.522.921 1.133-.61.853-3.342.631-2.92-.623.56-.423 1.34-.483 1.999-.51zm-24.1.396c.697-.197 3.177.475 1.914 1.46-1.012.841-3.174.502-3.453-.896.234-.593 1.038-.517 1.539-.564zm27.923 17.327c-2.034-.59-3.451 3.424-.54 2.685 2.254.71 9.82-1.342 8.987-2.129-2.77.302-5.89.806-8.447-.556zm-24.75.22c-2.495 2.038-5.987 3.834-8.863 4.101 3.399 1.17 8.71 1.042 10.657-2.47-.026-.894-.963-1.58-1.794-1.631zm77.72 76.859h-19.374V90.562c4.05-1 7.591.299 6.52 4.797v33.854h12.857l-.003 5.418zm-24.461 1.076c-3.595-1.847-9.781-3.701-4.53-7.69 4.958-8.49 4.368-19.097 2.03-28.303-3.132-10.757-19.026-13.38-25.867-4.757-6.157 7.41-5.724 17.81-4.61 26.812.87 7.378 7.465 14.835 15.407 13.335 6.403-3.265 10.848 6.39 16.138 3.847.459-1.1.774-2.226 1.432-3.244zm-24.256-9.9c-3.499-8.706-3.65-19.123.532-27.585 4.942-6.094 15.602-1.688 15.165 6.078 1.443 7.781 1.795 16.781-3.074 23.466-3.552 3.403-10.408 2.601-12.623-1.959zm-12.216-3.387c.622 9.184-10.184 15.005-18.256 12.347-4.571 2.049-9.828-8.2-3.509-6.052 4.673 2.188 12.281 1.81 14.38-3.677 1.579-6.965-6.934-9.498-11.366-12.653-6.213-3.118-8.418-11.541-4.447-17.236 3.99-5.834 12.173-6.17 18.243-4.161 4.667 3.322-.305 8.025-4.625 5.295-2.626-.185-8.684-1.63-2.45-1.08-5.875-.555-7.716 7.02-4.128 10.728 3.592 4.569 10.427 4.741 13.876 9.592 1.613 1.884 2.65 4.388 2.282 6.897z" fill="#4d4d4d"/><path d="M114.55 122.73c0 5.202 0 5.582 0 0z"/><g fill="#4d4d4d"><path d="M99.805 31.387c-5.057-1.522 2.793 9.36 1.928 2.319-.29-1.009-1.124-1.77-1.928-2.32z"/><path d="M150.047 77.688c-5.343-.846-16.322 1.863-8.21 7.779 3.687 2.734 12.3 8.34 13.536 8.66-2.823-5.544-8.85-8.193-12.75-12.645 4.49-1.232 15.466-1.26 7.263-6.956-5.096-6.437-15.564-6.747-17.305-15.693-3.727-9.19-7.251-18.839-14.91-25.614-5.452-6.127-13.239-9.303-20.799-10.695-4.228-6.44-18.278-4.778-11.944 4.478 4.919 5.052 5.33 12.255 8.53 18.238 4.75 5.315-2.374 12.762.475 19.301-.595 7.752 10.473 13.677 9.558 2.512 1.001-2.841 3.618 7.705 6.948 8.609 2.16 2.03 8.252 7.578 2.804 2.013-4.695-4.471-7.05-15.227-10.315-17.536-3.67 2.44-1.705 16.398-5.982 7.253-2.245-6.127-1.191-12.76.894-18.746-4.314-5.995-4.88-14.17-9.2-20.348-3.997-2.68-3.953-10.387 2.167-5.991 4.97 5.323 12.524 3.15 18.037 7.59 9.522 6.02 15.676 15.887 19.25 26.35 2.326 6.477 4.995 13.428 12.771 14.397 3.111 2.082 6.813 4.172 9.182 7.044z"/></g></svg>