<svg xmlns="http://www.w3.org/2000/svg" height="142.782" width="199.675">
  <path d="M94.254 107.287c-.097.183-.187.31 0 0zm76.724-25.412a42.981 43.919 0 00-17.866 3.945c-1.817-3.479-3.695-6.515-4.005-8.798a21.352 21.816 0 01-.338-7.392c.432-3.154 2.372-7.624 2.34-7.944-.033-.32-.432-1.927-4.405-1.956-3.97-.033-7.388.73-7.788 1.721a33.16 33.881 0 00-1.63 5.58c-.709 3.417-7.945 15.626-12.04 21.995a19.467 19.892 0 01-3.08-13.817c.431-3.153 2.37-7.624 2.342-7.947-.032-.32-.432-1.924-4.401-1.956-3.97-.03-7.392.73-7.794 1.725-.4.991-.832 3.326-1.63 5.576-.803 2.25-10.437 22.589-12.956 27.874a141.06 144.13 0 01-3.206 6.31c-.126.235-.213.379-.277.5.093-.147.155-.294.155-.235a104.789 104.789 0 01-1.077 1.956v.033c-.525.933-1.108 1.777-1.385 1.777-.187 0-.587-2.455.09-5.811 1.447-7.07 4.865-18.053 4.836-18.434-.032-.202.644-2.103-2.249-3.124a3.815 3.897 0 00-4.066.646c-.245 0-.431.587-.431.587S93.229 72.3 84.146 72.3c-5.667 0-13.549 5.902-17.427 11.243-2.433 1.256-7.701 3.972-13.243 6.865L47.1 93.738c-.155-.144-.277-.294-.432-.437-11.019-11.16-31.372-19.044-30.515-34.025.31-5.465 2.31-19.803 39.134-37.214 30.19-14.26 54.322-10.346 58.475-1.643 5.974 12.424-12.9 35.518-44.243 38.85-11.948 1.256-18.227-3.126-19.8-4.76-1.63-1.725-1.878-1.813-2.493-1.49-1.012.521-.371 2.044 0 2.948.924 2.308 4.775 6.398 11.331 8.445 5.758 1.78 19.764 2.772 36.698-3.45 19.03-6.952 33.84-26.316 29.495-42.53-4.418-16.473-33.222-21.877-60.454-12.7-16.233 5.458-33.776 14.044-46.4 25.233C2.901 44.283.497 55.878 1.486 60.727c3.51 17.205 28.509 28.423 38.516 36.719-.493.257-.957.495-1.385.727-5.017 2.367-24.078 11.83-28.85 21.822-5.387 11.332.893 19.452 5.017 20.56 12.871 3.392 26.05-2.716 33.132-12.734 7.078-10.017 6.218-23.103 2.954-29.061-.033-.088-.094-.147-.129-.235a462.213 472.27 0 013.943-2.191 259.916 265.572 0 017.234-3.88 41.64 42.546 0 00-2.584 12.443c-.557 6.424 2.25 14.75 5.88 18.023a6.808 6.956 0 004.74 1.461c4.252 0 6.16-3.333 8.28-7.304 2.62-4.85 4.93-10.484 4.93-10.484s-2.89 15.238 5.026 15.238c2.89 0 5.783-3.535 7.082-5.348v.033s.06-.118.212-.352c.31-.44.464-.701.464-.701v-.088c1.17-1.898 3.725-6.252 7.572-13.436 4.99-9.29 9.763-20.886 9.763-20.886a54.113 55.293 0 001.907 7.536 66.685 68.134 0 004.127 8.762 144.23 144.23 0 01-1.878 2.397.087.088 0 00.032.059 116.646 103.056 0 01-3.051 3.652c-3.94 4.438-8.622 9.522-9.244 10.98-.741 1.725-.554 3.01.863 4a7.987 8.162 0 004.833.731 22.721 23.215 0 007.243-1.571 26.047 26.613 0 006.219-3.099 12.618 12.894 0 005.973-11.621 22.331 22.817 0 00-2.249-8.237c.342-.47.71-.966 1.047-1.462a149.442 152.69 0 0010.81-17.706 54.113 55.293 0 001.908 7.532 48.674 49.73 0 003.508 7.507c-5.726 4.409-9.27 9.522-10.5 12.88-2.278 6.223-.493 9.027 2.864 9.67a11.02 11.257 0 005.264-1.024 25.215 25.762 0 006.651-3.242c3.85-2.687 7.571-6.456 7.327-11.566a19.999 20.433 0 00-1.663-6.835 40.275 41.153 0 0119.12-2.104c17.15 1.898 20.504 12.066 19.86 16.305-.648 4.236-4.253 6.594-5.452 7.298-1.202.705-1.572.966-1.479 1.49.155.76.709.73 1.724.555 1.418-.235 8.989-3.447 9.33-11.303.49-9.933-9.575-20.857-27.412-20.769zM38.8 124.143c-5.664 5.87-13.61 8.087-17.025 6.219-3.663-2.022-2.216-10.664 4.772-16.918a91.124 93.107 0 0113.365-9.47c.831-.466 2.033-1.164 3.512-2.015.248-.147.37-.202.37-.202.277-.177.583-.323.893-.499 2.552 8.88.09 16.709-5.883 22.872zm41.377-26.697c-1.969 4.585-6.122 16.269-8.648 15.652-2.155-.521-3.48-9.434-.432-18.196a38.709 39.549 0 016.744-11.713c3.106-3.3 6.527-4.35 7.327-3.036 1.079 1.721-3.757 14.43-4.991 17.293zm34.188 15.48c-.831.41-1.602.671-1.972.465-.277-.143.342-.7.342-.7s4.282-4.35 5.973-6.34a255.845 226.038 0 003.354-4.06c0 .147.033.294.033.47-.042 5.227-5.336 8.762-7.737 10.165zm26.356-5.694c-.613-.408-.522-1.78 1.54-6.046a22.467 22.954 0 015.854-7.154 9.679 9.89 0 01.583 3.153c-.032 6.574-4.988 9.026-7.977 10.047z" fill="#c16192" stroke="#fff" stroke-width="2.561"/>
</svg>
