<svg xmlns="http://www.w3.org/2000/svg" viewBox="0 0 143.296 141.306" height="140.615" width="143.064">
  <path d="M128.126 0H15.166C6.663 0-.237 6.782-.237 15.14v111.026c0 8.359 6.9 15.14 15.404 15.14h112.96c8.503 0 15.403-6.781 15.403-15.14V15.14c0-8.358-6.9-15.14-15.404-15.14zM78 110.206c0 13.752-8.215 20.03-20.185 20.03-10.815 0-17.072-5.489-20.28-12.145l11.01-6.53c2.116 3.691 4.041 6.814 8.695 6.814 4.428 0 7.252-1.703 7.252-8.359V64.884H78zm31.963 20.03c-12.548 0-20.667-5.867-24.614-13.563l11.01-6.246c2.888 4.637 6.675 8.075 13.317 8.075 5.584 0 9.178-2.741 9.178-6.561 0-4.542-3.658-6.15-9.85-8.832l-3.37-1.42c-9.757-4.069-16.207-9.21-16.207-20.029 0-9.967 7.734-17.541 19.768-17.541 8.6 0 14.762 2.934 19.19 10.63l-10.53 6.628c-2.31-4.07-4.816-5.677-8.696-5.677-3.947 0-6.45 2.46-6.45 5.677 0 3.974 2.502 5.583 8.31 8.075l3.37 1.42c11.49 4.825 17.94 9.775 17.94 20.88 0 11.923-9.564 18.483-22.368 18.483z" fill="#e1cf45" stroke-width="0"/>
</svg>
