<svg xmlns="http://www.w3.org/2000/svg" width="148.155" height="160.356" viewBox="0 0 42 42"><path d="M41.618 9.433L.575 32.306c-.279-.31-.448-.896-.575-1.43l.062-19.942c.127-1.105.689-1.7 1.354-2.398L19.63-1.63c.766-.336 1.698-.243 2.676-.044l17.369 9.499c.731.383 1.644.934 1.944 1.609z" fill="#9b4f97" stroke-width=".866"/><path d="M20.226 43.423c-.553-.136-.79-.26-6.445-3.353l-6.49-3.549c-5.66-3.094-6.09-3.34-6.312-3.606-.186-.224-.405-.555-.405-.613-.001-.058 3.087-1.826 6.78-3.885l1.398-.78.394.64c.422.577 1.285 1.744 1.285 1.744s2.412 2.276 3.906 3.001c2.022.862 3.685 1.263 5.609 1.46 4.299.235 7.802-.877 10.833-3.54.701-.615 1.974-2.031 1.973-2.16 0-.02.16-.154.269-.28.108-.128.195-.249.195-.27 0-.086.355-.643.437-.643.106-.001 1.57.861 5.083 2.754 1.412.76 2.673 1.443 2.804 1.514.463.09.132.351-.06.572l-.239.26c-.388.305-1.086.817-1.666 1.149-1.47.814-2.508 1.394-2.902 1.62-.268.153-.514.28-.548.28-.034 0-.182.083-.329.183a6.716 6.43 0 01-.631.367c-.201.102-.61.325-.909.496-.297.17-.556.311-.574.311-.018 0-.165.082-.328.182-.372.23-1.716.958-1.767.958-.021 0-.078.034-.126.076-.074.063-3.269 1.838-6.185 3.437-1.655.906-2.937 1.59-2.985 1.59a.438.42 0 00-.148.051c-.11.056-.96.171-1.224.166a5.277 5.277 0 01-.693-.132z" opacity=".995" fill="#67217a" stroke="#67217a" stroke-width=".1" stroke-dasharray=".02511537,.02511537"/><path d="M21.073 20.862L41.618 9.433c.196.297.281 1.025.281 1.432.182 7.855-.073 13.593-.075 20.301.006.53.005.822-.048.823z" fill="#803788" stroke="#803788" stroke-width=".07"/><path d="M31.852 18.21l1.244-.004-.02-1.177 1.669-.02.02 1.19 1.917-.035-.005-1.149 1.492-.02.02 1.136 1.244-.005.021 1.556-1.274-.01-.006 1.823 1.288-.005.02 1.541-1.258.004.02 1.244h-1.592l-.009-1.237-1.888.007.005 1.26-1.625-.008-.02-1.218-1.229.004.009-1.542 1.23.01-.023-1.765-1.23.018z" fill="#fff" stroke-width=".866"/><path d="M34.8 19.727l1.844-.02.022 1.793-1.888.007z" fill="#803788" stroke-width=".866"/><path d="M15.074 24.184l5.999-3.322 6.399 3.443c-2.095 2.22-4.31 3.515-6.726 3.273-3.084-.501-7.389-2.444-5.672-3.394z" fill="#67217a" stroke-width=".866"/><path d="M27.472 24.305l6.202 3.331c-3.46 5.203-7.696 6.735-12.298 6.936-8.23-.285-11.599-4.188-13.664-9.06-1.76-4.616-1.017-8.98 2.03-13.11 4.023-4.477 8.718-5.884 13.887-5.12 5.943.827 8.006 3.682 10.077 6.557l-6.488 3.61c-2.873-3.502-6.045-4.408-10.173-2.297-2.97 2.703-3.964 5.599-1.905 9.145 4.575 3.926 9.296 2.983 12.332.009z" fill="#fff" fill-opacity=".995" stroke-width=".866"/></svg>